<svg xmlns="http://www.w3.org/2000/svg" viewBox="0 0 114 114" width="114" height="114">
	<defs>
		<clipPath clipPathUnits="userSpaceOnUse" id="cp1">
			<path d="M-1032 -3389L888 -3389L888 5153L-1032 5153Z" />
		</clipPath>
	</defs>
	<style>
		tspan { white-space:pre }
		.shp0 { fill: #feb728 } 
	</style>
	<g id="landing 1" clip-path="url(#cp1)">
		<g id="-e-Group 79">
			<path id="Path 16" fill-rule="evenodd" d="M60.64 71.99L60.64 45.47L53.07 45.47L53.07 71.99C53.07 73.04 52.22 73.89 51.17 73.89C50.12 73.89 49.28 73.04 49.28 71.99L49.28 45.47L43.59 45.47C38.37 45.47 34.12 41.22 34.12 36C34.12 30.77 38.37 26.52 43.59 26.52C48.82 26.52 53.07 30.77 53.07 36L53.07 41.68L60.64 41.68L60.64 36C60.64 30.77 64.89 26.52 70.12 26.52C75.34 26.52 79.59 30.77 79.59 36C79.59 41.22 75.34 45.47 70.12 45.47L64.43 45.47L64.43 71.99C64.43 73.04 63.59 73.89 62.54 73.89C61.49 73.89 60.64 73.04 60.64 71.99ZM64.43 41.68L70.12 41.68C73.25 41.68 75.8 39.13 75.8 36C75.8 32.86 73.25 30.31 70.12 30.31C66.98 30.31 64.43 32.86 64.43 36L64.43 41.68ZM49.28 36C49.28 32.86 46.73 30.31 43.59 30.31C40.46 30.31 37.91 32.86 37.91 36C37.91 39.13 40.46 41.68 43.59 41.68L49.28 41.68L49.28 36Z" />
			<path id="Path 17" d="M13.55 4.03L20.8 10.12C21.15 10.42 21.59 10.56 22.02 10.56C22.56 10.56 23.09 10.33 23.47 9.88C24.14 9.08 24.04 7.89 23.23 7.21L15.98 1.13C15.18 0.46 13.99 0.56 13.31 1.36C12.64 2.16 12.74 3.36 13.55 4.03Z" />
			<path id="Path 18" d="M14.77 20.56L5.87 17.32C4.89 16.97 3.8 17.47 3.44 18.46C3.09 19.44 3.59 20.53 4.58 20.89L13.48 24.12C13.69 24.2 13.91 24.24 14.12 24.24C14.9 24.24 15.62 23.76 15.9 22.99C16.26 22.01 15.75 20.92 14.77 20.56Z" />
			<path id="Path 19" d="M91.69 10.56C92.12 10.56 92.55 10.41 92.9 10.12L100.16 4.03C100.96 3.35 101.07 2.16 100.39 1.36C99.72 0.56 98.53 0.45 97.72 1.12L90.47 7.21C89.67 7.89 89.56 9.08 90.23 9.88C90.61 10.33 91.15 10.56 91.69 10.56Z" />
			<path id="Path 20" d="M11.38 36L1.91 36C0.87 36 0.02 36.85 0.02 37.89C0.02 38.94 0.87 39.79 1.91 39.79L11.38 39.79C12.43 39.79 13.28 38.94 13.28 37.89C13.28 36.85 12.43 36 11.38 36Z" />
			<path id="Path 21" d="M110.26 18.45C109.91 17.47 108.82 16.96 107.83 17.32L98.93 20.56C97.95 20.92 97.44 22 97.8 22.99C98.08 23.76 98.81 24.23 99.58 24.23C99.8 24.23 100.02 24.2 100.23 24.12L109.13 20.88C110.11 20.52 110.62 19.43 110.26 18.45Z" />
			<path id="Path 22" fill-rule="evenodd" d="M94.75 37.89C94.75 53.88 88.47 65.81 75.01 75.43C74.93 75.49 74.84 75.54 74.75 75.58C74.67 75.62 72.64 76.76 72.13 79.95C74.27 80.77 75.8 82.83 75.8 85.25C75.8 86.71 75.25 88.04 74.35 89.04C75.25 90.05 75.8 91.38 75.8 92.83C75.8 94.29 75.25 95.62 74.35 96.62C75.25 97.63 75.8 98.96 75.8 100.41C75.8 103.6 73.31 106.09 70.12 106.09L64.43 106.09L64.43 107.99C64.43 111.12 61.88 113.67 58.75 113.67L54.96 113.67C51.83 113.67 49.28 111.12 49.28 107.99L49.28 104.2C49.28 103.15 50.13 102.31 51.17 102.31L70.12 102.31C71.2 102.31 72.01 101.49 72.01 100.41C72.01 99.37 71.16 98.52 70.12 98.52C69.07 98.52 68.22 97.67 68.22 96.62C68.22 95.58 69.07 94.73 70.12 94.73C71.16 94.73 72.01 93.88 72.01 92.83C72.01 91.79 71.16 90.94 70.12 90.94C69.07 90.94 68.22 90.09 68.22 89.04C68.22 88 69.07 87.15 70.12 87.15C71.16 87.15 72.01 86.3 72.01 85.26C72.01 84.21 71.16 83.36 70.12 83.36C69.07 83.36 68.22 82.51 68.22 81.47C68.22 75.34 72.02 72.79 72.89 72.29C85.38 63.33 90.96 52.72 90.96 37.89C90.96 19.09 75.66 3.79 56.85 3.79C38.05 3.79 22.75 19.09 22.75 37.89C22.75 52.72 28.32 63.33 40.82 72.29C41.6 72.73 44.69 74.8 45.36 79.57L62.54 79.57C63.59 79.57 64.43 80.42 64.43 81.47C64.43 82.51 63.59 83.36 62.54 83.36L43.59 83.36C42.55 83.36 41.7 84.21 41.7 85.26C41.7 86.3 42.55 87.15 43.59 87.15L62.54 87.15C63.59 87.15 64.43 88 64.43 89.04C64.43 90.09 63.59 90.94 62.54 90.94L43.59 90.94C42.55 90.94 41.7 91.79 41.7 92.83C41.7 93.88 42.55 94.73 43.59 94.73L62.54 94.73C63.59 94.73 64.43 95.58 64.43 96.62C64.43 97.67 63.59 98.52 62.54 98.52L43.59 98.52C42.55 98.52 41.7 99.37 41.7 100.41C41.7 101.45 42.55 102.31 43.59 102.31C44.64 102.31 45.49 103.15 45.49 104.2C45.49 105.25 44.64 106.09 43.59 106.09C40.46 106.09 37.91 103.54 37.91 100.41C37.91 98.96 38.46 97.63 39.36 96.62C38.46 95.62 37.91 94.29 37.91 92.83C37.91 91.38 38.46 90.05 39.36 89.04C38.46 88.04 37.91 86.71 37.91 85.25C37.91 82.83 39.44 80.77 41.58 79.95C41.07 76.76 39.03 75.62 38.93 75.57C38.86 75.53 38.77 75.47 38.7 75.43C25.23 65.81 18.96 53.88 18.96 37.89C18.96 17 35.96 0 56.85 0C77.75 0 94.75 17 94.75 37.89ZM60.64 106.09L53.07 106.09L53.07 107.99C53.07 109.03 53.92 109.88 54.96 109.88L58.75 109.88C59.79 109.88 60.64 109.03 60.64 107.99L60.64 106.09Z" />
			<path id="Path 23" d="M111.8 36L102.32 36C101.28 36 100.43 36.84 100.43 37.89C100.43 38.94 101.28 39.79 102.32 39.79L111.8 39.79C112.84 39.79 113.69 38.94 113.69 37.89C113.69 36.84 112.84 36 111.8 36Z" />
		</g>
	</g>
</svg>