<svg xmlns="http://www.w3.org/2000/svg" viewBox="0 0 90 123" width="90" height="123">
	<defs>
		<clipPath clipPathUnits="userSpaceOnUse" id="cp1">
			<path d="M-595 -3384L1325 -3384L1325 5158L-595 5158Z" />
		</clipPath>
	</defs>
	<style>
		tspan { white-space:pre }
		.shp0 { fill: #feb728 } 
	</style>
	<g id="landing 1" clip-path="url(#cp1)">
		<g id="-e-power">
			<g id="Group 81">
				<g id="Group 80">
					<path id="Path 31" d="M35.04 73.63C35.16 73.63 35.3 73.62 35.43 73.59L55.61 69.56C56.7 69.34 57.41 68.27 57.19 67.18C56.97 66.09 55.92 65.38 54.82 65.6L47.14 67.13L47.14 59.51C47.14 58.4 46.24 57.49 45.12 57.49C44.01 57.49 43.11 58.4 43.11 59.51L43.11 67.94L34.64 69.64C33.55 69.85 32.84 70.92 33.06 72.01C33.25 72.97 34.09 73.63 35.04 73.63Z" />
					<path id="Path 32" d="M35.04 89.77C35.16 89.77 35.3 89.76 35.43 89.73L55.61 85.7C56.7 85.48 57.41 84.41 57.19 83.32C56.97 82.23 55.92 81.52 54.82 81.74L34.64 85.78C33.55 85.99 32.84 87.06 33.06 88.15C33.25 89.11 34.09 89.77 35.04 89.77Z" />
					<path id="Path 33" fill-rule="evenodd" d="M33.02 41.35C33.02 34.68 38.45 29.25 45.12 29.25C51.8 29.25 57.23 34.68 57.23 41.35C57.23 48.03 51.8 53.46 45.12 53.46C38.45 53.46 33.02 48.03 33.02 41.35ZM37.05 41.35C37.05 45.8 40.67 49.42 45.12 49.42C49.58 49.42 53.19 45.8 53.19 41.35C53.19 36.9 49.58 33.28 45.12 33.28C40.67 33.28 37.05 36.9 37.05 41.35Z" />
					<path id="Path 34" d="M41.84 17L47.89 14.58L45.23 22.56C44.88 23.61 45.45 24.76 46.5 25.11C46.72 25.18 46.93 25.21 47.14 25.21C47.99 25.21 48.77 24.68 49.05 23.83L53.09 11.73C53.34 10.98 53.13 10.16 52.56 9.62C51.99 9.08 51.15 8.93 50.43 9.21L44.38 11.64L47.04 3.66C47.39 2.6 46.82 1.46 45.76 1.1C44.7 0.75 43.57 1.32 43.21 2.38L39.18 14.49C38.93 15.23 39.13 16.05 39.71 16.59C40.28 17.13 41.11 17.29 41.84 17Z" />
					<path id="Path 35" d="M35.04 81.7C35.16 81.7 35.3 81.69 35.43 81.66L55.61 77.63C56.7 77.41 57.41 76.34 57.19 75.25C56.97 74.16 55.92 73.46 54.82 73.67L34.64 77.7C33.55 77.92 32.84 78.99 33.06 80.08C33.25 81.04 34.09 81.7 35.04 81.7Z" />
					<path id="Path 36" d="M89.02 5.74C88.3 4.9 87.03 4.8 86.18 5.52L72.06 17.63C71.41 18.18 71.18 19.07 71.48 19.86C71.77 20.65 72.52 21.18 73.37 21.18L77.7 21.18L62.02 33.72C61.15 34.42 61.01 35.69 61.71 36.56C62.11 37.06 62.69 37.32 63.28 37.32C63.73 37.32 64.17 37.17 64.54 36.87L84.72 20.73C85.39 20.2 85.64 19.3 85.36 18.49C85.08 17.68 84.31 17.14 83.46 17.14L78.82 17.14L88.8 8.58C89.65 7.86 89.75 6.59 89.02 5.74Z" />
					<path id="Path 37" d="M67.32 109.95L47.14 109.95C47.14 108.83 46.24 107.93 45.12 107.93C44.01 107.93 43.11 108.83 43.11 109.95L22.93 109.95C19.54 109.95 16.88 112.61 16.88 116L16.88 120.03C16.88 121.15 17.78 122.05 18.9 122.05C20.01 122.05 20.91 121.15 20.91 120.03L20.91 116C20.91 115.02 21.62 113.98 22.93 113.98L67.32 113.98C68.52 113.98 69.33 114.79 69.33 116L69.33 120.03C69.33 121.15 70.24 122.05 71.35 122.05C72.47 122.05 73.37 121.15 73.37 120.03L73.37 116C73.37 112.55 70.77 109.95 67.32 109.95Z" />
					<path id="Path 38" d="M35.04 97.84C35.16 97.84 35.3 97.83 35.43 97.8L55.61 93.77C56.7 93.55 57.41 92.48 57.19 91.39C56.97 90.3 55.92 89.59 54.82 89.81L34.64 93.84C33.55 94.06 32.84 95.13 33.06 96.22C33.25 97.18 34.09 97.84 35.04 97.84Z" />
					<path id="Path 39" d="M35.04 105.91C35.16 105.91 35.3 105.9 35.43 105.87L55.61 101.84C56.7 101.62 57.41 100.55 57.19 99.46C56.97 98.37 55.92 97.66 54.82 97.88L34.64 101.91C33.55 102.13 32.84 103.2 33.06 104.29C33.25 105.25 34.09 105.91 35.04 105.91Z" />
					<path id="Path 40" d="M16.88 16.4L29.49 30.59C30.23 31.42 31.51 31.49 32.34 30.76C33.17 30.01 33.25 28.74 32.51 27.9L16.37 9.75C15.81 9.12 14.93 8.91 14.14 9.2C13.36 9.5 12.84 10.25 12.84 11.09L12.84 26.39L4.18 17.73C3.39 16.94 2.12 16.94 1.33 17.73C0.54 18.52 0.54 19.8 1.33 20.59L13.44 32.69C13.82 33.08 14.34 33.28 14.86 33.28C15.12 33.28 15.38 33.23 15.63 33.13C16.39 32.82 16.88 32.08 16.88 31.26L16.88 16.4Z" />
				</g>
			</g>
		</g>
	</g>
</svg>