<svg xmlns="http://www.w3.org/2000/svg" viewBox="0 0 88 88" width="88" height="88">
	<defs>
		<clipPath clipPathUnits="userSpaceOnUse" id="cp1">
			<path d="M-278 -7195L1642 -7195L1642 1347L-278 1347Z" />
		</clipPath>
	</defs>
	<style>
		tspan { white-space:pre }
		.shp0 { fill: #feb728 } 
	</style>
	<g id="landing 1" clip-path="url(#cp1)">
		<g id="-e-XMLID_700_">
			<g id="XMLID_684_">
				<g id="XMLID_685_">
					<path id="XMLID_699_" d="M78.63 29.76C79.13 29.76 79.61 29.56 79.95 29.22C80.3 28.87 80.5 28.39 80.5 27.89C80.5 27.4 80.3 26.92 79.95 26.57C79.61 26.23 79.13 26.03 78.63 26.03C78.14 26.03 77.66 26.22 77.31 26.57C76.97 26.92 76.76 27.4 76.76 27.89C76.76 28.39 76.96 28.87 77.31 29.22C77.66 29.56 78.14 29.76 78.63 29.76Z" />
					<path id="XMLID_698_" d="M33.8 75.21L33.77 75.21C32.74 75.21 31.91 76.04 31.91 77.08C31.91 78.11 32.74 78.95 33.77 78.95L33.8 78.95C34.83 78.95 35.67 78.11 35.67 77.08C35.67 76.04 34.83 75.21 33.8 75.21Z" />
					<path id="XMLID_691_" fill-rule="evenodd" d="M87.47 70.22L70.22 87.47C70.22 87.47 70.22 87.47 70.22 87.47C69.91 87.78 69.48 87.98 69.01 87.98L5.15 87.98C2.31 87.98 0 85.66 0 82.82L0 12.03C0 9.19 2.31 6.87 5.15 6.87L11 6.87L11 5.84C11 2.62 13.62 0 16.84 0C20.06 0 22.68 2.62 22.68 5.84L22.68 6.87L38.12 6.87L38.12 5.84C38.12 2.62 40.75 0 43.97 0C47.19 0 49.81 2.62 49.81 5.84L49.81 6.87L65.25 6.87L65.25 5.84C65.25 2.62 67.87 0 71.09 0C74.32 0 76.94 2.62 76.94 5.84L76.94 6.87L82.82 6.87C85.67 6.87 87.98 9.19 87.98 12.03L87.98 69.01C87.98 69.48 87.79 69.91 87.47 70.22ZM68.69 14.26C68.69 15.59 69.77 16.67 71.09 16.67C72.42 16.67 73.5 15.59 73.5 14.26L73.5 5.84C73.5 4.52 72.42 3.44 71.09 3.44C69.77 3.44 68.69 4.52 68.69 5.84L68.69 14.26ZM41.56 5.84L41.56 14.26C41.56 15.59 42.64 16.67 43.97 16.67C45.29 16.67 46.37 15.59 46.37 14.26L46.37 5.84C46.37 4.52 45.29 3.44 43.97 3.44C42.64 3.44 41.56 4.52 41.56 5.84ZM14.43 14.26C14.43 15.59 15.51 16.67 16.84 16.67C18.17 16.67 19.25 15.59 19.25 14.26L19.25 5.84C19.25 4.52 18.17 3.44 16.84 3.44C15.51 3.44 14.43 4.52 14.43 5.84L14.43 14.26ZM5.15 84.54L67.29 84.54L67.29 72.44C67.29 69.6 69.6 67.29 72.44 67.29L84.54 67.29L84.54 12.03C84.54 11.08 83.77 10.31 82.82 10.31L76.94 10.31L76.94 14.26C76.94 17.48 74.32 20.1 71.09 20.1C67.87 20.1 65.25 17.48 65.25 14.26L65.25 10.31L49.81 10.31L49.81 14.26C49.81 17.48 47.19 20.1 43.97 20.1C40.75 20.1 38.12 17.48 38.12 14.26L38.12 10.31L22.68 10.31L22.68 14.26C22.68 17.48 20.06 20.1 16.84 20.1C13.62 20.1 11 17.48 11 14.26L11 10.31L5.15 10.31C4.21 10.31 3.44 11.08 3.44 12.03L3.44 26.12L72.51 26.12C73.46 26.12 74.23 26.89 74.23 27.84C74.23 28.79 73.46 29.55 72.51 29.55L3.44 29.55L3.44 76.24L26.89 76.24C27.84 76.24 28.61 77.01 28.61 77.95C28.61 78.9 27.84 79.67 26.89 79.67L3.44 79.67L3.44 82.82C3.44 83.77 4.21 84.54 5.15 84.54ZM82.11 70.72L72.44 70.72C71.49 70.72 70.72 71.49 70.72 72.44L70.72 82.11L82.11 70.72Z" />
					<g id="Group 83">
						<path id="XMLID_690_" d="M42.75 60.51L42.75 54.06L42.75 47.61C42.75 45.6 41.11 43.97 39.11 43.97L34.07 43.97C33.04 43.97 31.19 44.77 31.19 45.8C31.19 46.84 29.98 47.7 31.01 47.7L39.01 47.7L39.01 52.19L39.01 55.93L39.01 60.41L34.63 60.41C34.63 60.41 32.76 61.25 32.76 62.28C32.76 63.31 33.6 64.15 34.63 64.15L39.11 64.15C41.11 64.15 42.75 62.51 42.75 60.51Z" />
						<path id="XMLID_690_" d="M58.72 60.51L58.72 54.06L58.72 47.61C58.72 45.6 57.08 43.97 55.07 43.97L50.04 43.97C49.01 43.97 47.16 44.77 47.16 45.8C47.16 46.84 45.95 47.7 46.98 47.7L54.98 47.7L54.98 52.19L54.98 55.93L54.98 60.41L50.6 60.41C50.6 60.41 48.73 61.25 48.73 62.28C48.73 63.31 49.57 64.15 50.6 64.15L55.07 64.15C57.08 64.15 58.72 62.51 58.72 60.51Z" />
						<path id="XMLID_690_" d="M74.69 60.51L74.69 54.06L74.69 47.61C74.69 45.6 73.05 43.97 71.04 43.97L66.01 43.97C64.98 43.97 63.13 44.77 63.13 45.8C63.13 46.84 61.92 47.7 62.95 47.7L70.95 47.7L70.95 52.19L70.95 55.93L70.95 60.41L66.57 60.41C66.57 60.41 64.7 61.25 64.7 62.28C64.7 63.31 65.54 64.15 66.57 64.15L71.04 64.15C73.05 64.15 74.69 62.51 74.69 60.51Z" />
						<path id="XMLID_686_" d="M17.11 52.19L20.27 52.19L23.33 52.19L23.33 47.7L15.33 47.7C14.3 47.7 13.46 46.87 13.46 45.83C13.46 44.8 14.3 43.97 15.33 43.97L23.43 43.97C25.43 43.97 27.07 45.6 27.07 47.61L27.07 52.28C27.07 54.29 25.43 55.93 23.43 55.93L20.27 55.93L17.2 55.93L17.2 60.41L25.2 60.41C26.23 60.41 27.07 61.25 27.07 62.28C27.07 63.31 26.23 64.15 25.2 64.15L17.11 64.15C15.1 64.15 13.46 62.51 13.46 60.51L13.46 55.83C13.46 53.82 15.1 52.19 17.11 52.19Z" />
						<path id="XMLID_690_" d="M29.37 47.61L29.37 54.06L29.37 60.51C29.37 62.51 31.01 64.15 33.02 64.15L38.86 64.11C39.89 64.11 40.73 63.27 40.73 62.24C40.73 61.21 39.89 60.37 38.86 60.37L33.11 60.41L33.11 55.93L33.11 52.19L33.11 47.7L37.39 47.7C38.42 47.7 39.26 46.87 39.26 45.83C39.26 44.8 38.42 43.97 37.39 43.97L33.02 43.97C31.01 43.97 29.37 45.6 29.37 47.61Z" />
						<path id="XMLID_690_" d="M45.38 47.61L45.38 54.06L45.38 60.51C45.38 62.51 47.01 64.15 49.02 64.15L54.86 64.11C55.9 64.11 56.73 63.27 56.73 62.24C56.73 61.21 55.9 60.37 54.86 60.37L49.12 60.41L49.12 55.93L49.12 52.19L49.12 47.7L53.39 47.7C54.43 47.7 55.26 46.87 55.26 45.83C55.26 44.8 54.43 43.97 53.39 43.97L49.02 43.97C47.01 43.97 45.38 45.6 45.38 47.61Z" />
						<path id="XMLID_690_" d="M61.08 47.61L61.08 54.06L61.08 60.51C61.08 62.51 62.71 64.15 64.72 64.15L70.57 64.11C71.6 64.11 72.43 63.27 72.43 62.24C72.43 61.21 71.6 60.37 70.57 60.37L64.82 60.41L64.82 55.93L64.82 52.19L64.82 47.7L69.1 47.7C70.13 47.7 70.97 46.87 70.97 45.83C70.97 44.8 70.13 43.97 69.1 43.97L64.72 43.97C62.71 43.97 61.08 45.6 61.08 47.61Z" />
					</g>
				</g>
			</g>
		</g>
	</g>
</svg>