<svg xmlns="http://www.w3.org/2000/svg" viewBox="0 0 91 100" width="91" height="100">
	<defs>
		<clipPath clipPathUnits="userSpaceOnUse" id="cp1">
			<path d="M-776 -7189L1144 -7189L1144 1353L-776 1353Z" />
		</clipPath>
	</defs>
	<style>
		tspan { white-space:pre }
		.shp0 { fill: #feb728 } 
	</style>
	<g id="landing 1" clip-path="url(#cp1)">
		<g id="Group 84">
			<g id="-e-solar-panel (1)">
				<path id="Path 49" class="shp0" d="M45.82 10.29C47.11 10.29 48.16 9.24 48.16 7.94L48.16 2.34C48.16 1.05 47.11 0 45.82 0C44.53 0 43.48 1.05 43.48 2.34L43.48 7.94C43.48 9.24 44.53 10.29 45.82 10.29Z" />
				<path id="Path 50" class="shp0" d="M65.02 29.32C65.02 30.61 66.07 31.66 67.37 31.66L72.98 31.66C74.27 31.66 75.32 30.61 75.32 29.32C75.32 28.03 74.27 26.98 72.98 26.98L67.37 26.98C66.07 26.98 65.02 28.03 65.02 29.32Z" />
				<path id="Path 51" class="shp0" d="M18.67 31.66L24.27 31.66C25.57 31.66 26.62 30.61 26.62 29.32C26.62 28.03 25.57 26.98 24.27 26.98L18.67 26.98C17.38 26.98 16.33 28.03 16.33 29.32C16.33 30.61 17.38 31.66 18.67 31.66Z" />
				<path id="Path 52" class="shp0" d="M61.12 18.2C61.72 18.2 62.32 17.97 62.78 17.51L66.74 13.55C67.66 12.64 67.66 11.15 66.74 10.24C65.83 9.32 64.34 9.32 63.43 10.24L59.46 14.2C58.55 15.12 58.55 16.6 59.46 17.51C59.92 17.97 60.52 18.2 61.12 18.2Z" />
				<path id="Path 53" class="shp0" d="M28.87 17.51C29.32 17.97 29.92 18.2 30.52 18.2C31.12 18.2 31.72 17.97 32.18 17.51C33.09 16.6 33.09 15.12 32.18 14.2L28.21 10.24C27.3 9.32 25.82 9.32 24.9 10.24C23.99 11.15 23.99 12.64 24.9 13.55L28.87 17.51Z" />
				<path id="Path 54" fill-rule="evenodd" class="shp0" d="M90.19 71.52C89.82 71.95 89.27 72.2 88.7 72.2L85.57 72.2L85.57 74.34C85.57 77.6 82.83 80.26 79.46 80.26L52.39 80.26L52.39 87.99L56.63 87.99C60.05 87.99 62.83 90.68 62.83 93.99L62.83 96.22L71.3 96.22C72.38 96.22 73.26 97.06 73.26 98.11C73.26 99.15 72.38 100 71.3 100L20.34 100C19.27 100 18.39 99.15 18.39 98.11C18.39 97.06 19.27 96.22 20.34 96.22L28.82 96.22L28.82 93.99C28.82 90.68 31.6 87.99 35.02 87.99L39.25 87.99L39.25 80.26L35.46 80.26C34.39 80.26 33.51 79.41 33.51 78.37C33.51 77.32 34.39 76.48 35.46 76.48L79.46 76.48C80.67 76.48 81.66 75.52 81.66 74.34L81.66 72.2L9.99 72.2L9.99 74.34C9.99 75.52 10.97 76.48 12.19 76.48L17.92 76.48C19 76.48 19.87 77.32 19.87 78.37C19.87 79.41 19 80.26 17.92 80.26L12.19 80.26C8.82 80.26 6.08 77.6 6.08 74.34L6.08 72.2L2.95 72.2C2.37 72.2 1.83 71.95 1.45 71.52C1.08 71.09 0.93 70.53 1.03 69.98L2.91 59.83C2.92 59.8 2.92 59.78 2.93 59.75L6.69 39.5C6.85 38.6 7.66 37.94 8.61 37.94L31.93 37.94C30.91 35.91 30.36 33.68 30.36 31.39C30.36 23.14 37.3 16.43 45.82 16.43C54.35 16.43 61.28 23.14 61.28 31.39C61.28 33.68 60.74 35.92 59.72 37.94L83.03 37.94C83.98 37.94 84.79 38.6 84.96 39.5L86.83 49.59C86.84 49.61 86.84 49.64 86.85 49.66L90.62 69.98C90.72 70.53 90.56 71.09 90.19 71.52ZM43.16 87.99L48.49 87.99L48.49 80.26L43.16 80.26L43.16 87.99ZM35.02 91.77C33.76 91.77 32.73 92.77 32.73 93.99L32.73 96.22L58.92 96.22L58.92 93.99C58.92 92.77 57.89 91.77 56.63 91.77L35.02 91.77ZM62.74 51.88L47.77 51.88L47.77 58.26L63.65 58.26L62.74 51.88ZM47.77 41.72L47.77 48.1L62.2 48.1L61.29 41.72L47.77 41.72ZM34.27 31.39C34.27 33.75 35.05 36.04 36.46 37.94L55.18 37.94C56.6 36.05 57.38 33.75 57.38 31.39C57.38 25.23 52.19 20.21 45.82 20.21C39.45 20.21 34.27 25.23 34.27 31.39ZM23.51 62.04L6.47 62.04L5.29 68.42L22.6 68.42L23.51 62.04ZM24.96 51.88L8.36 51.88L7.17 58.26L24.05 58.26L24.96 51.88ZM26.42 41.72L10.24 41.72L9.06 48.1L25.5 48.1L26.42 41.72ZM43.87 62.04L27.46 62.04L26.55 68.42L43.87 68.42L43.87 62.04ZM43.87 51.88L28.91 51.88L28 58.26L43.87 58.26L43.87 51.88ZM43.87 41.72L30.36 41.72L29.45 48.1L43.87 48.1L43.87 41.72ZM65.1 68.42L64.19 62.04L47.77 62.04L47.77 68.42L65.1 68.42ZM66.14 48.1L82.59 48.1L81.4 41.72L65.23 41.72L66.14 48.1ZM67.59 58.26L84.47 58.26L83.29 51.88L66.68 51.88L67.59 58.26ZM86.36 68.42L85.18 62.04L68.13 62.04L69.04 68.42L86.36 68.42Z" />
				<path id="Path 55" class="shp0" d="M26.87 79.78C28.16 79.78 29.21 78.73 29.21 77.44C29.21 76.14 28.16 75.1 26.86 75.1C25.57 75.1 24.52 76.14 24.52 77.44C24.52 78.73 25.57 79.78 26.86 79.78L26.87 79.78Z" />
			</g>
		</g>
	</g>
</svg>