<svg xmlns="http://www.w3.org/2000/svg" viewBox="0 0 107 100" width="107" height="100">
	<defs>
		<clipPath clipPathUnits="userSpaceOnUse" id="cp1">
			<path d="M-1366 -7189L554 -7189L554 1353L-1366 1353Z" />
		</clipPath>
	</defs>
	<style>
		tspan { white-space:pre }
		.shp0 { fill: #feb728 } 
	</style>
	<g id="landing 1" clip-path="url(#cp1)">
		<g id="-e-user (4)">
			<g id="Group 82">
				<path id="Path 56" fill-rule="evenodd" class="shp0" d="M106.77 86.16L106.77 96.61C106.77 98.48 105.25 100 103.37 100L55.21 100C54.54 100 53.91 99.8 53.38 99.46C52.85 99.8 52.23 100 51.56 100L3.39 100C1.52 100 0 98.48 0 96.61L0 72.08C0 64.86 6.19 62.24 6.45 62.13C6.46 62.12 6.47 62.12 6.48 62.12L20.3 56.76L20.3 54.1C17.91 52.28 16.4 49.61 15.94 46.82C13.13 46.47 11.16 44.14 11.16 41.46C11.16 40.25 11.58 39.1 12.37 38.16L12.37 33.83C12.37 30.55 13.41 27.43 15.39 24.82C17.29 22.29 20 20.4 23.02 19.49C23.85 19.24 24.72 19.71 24.97 20.54C25.22 21.37 24.75 22.24 23.92 22.49C18.96 23.98 15.5 28.65 15.5 33.83L15.5 36.23C15.52 36.23 15.91 36.15 15.94 36.14C16.33 35.1 17.24 34.46 18.69 34.54C23.16 34.8 27.97 33.49 31.93 30.9C32.94 30.24 34.27 30.4 35.1 31.28C37.41 33.77 38.13 34.49 38.53 35.06C38.77 35.41 38.88 35.68 38.9 36.12C38.91 36.12 39.13 36.16 39.2 36.17L39.2 33.83C39.2 28.45 35.57 23.74 30.37 22.37C29.54 22.15 29.04 21.3 29.26 20.46C29.48 19.63 30.33 19.13 31.17 19.35C33.4 19.94 35.4 21.01 37.07 22.44C37.11 21.29 37.53 20.21 38.28 19.31L38.28 14.98C38.28 6.72 45 0 53.26 0C61.52 0 68.23 6.72 68.23 14.98L68.23 19.2C68.98 20.11 69.41 21.25 69.44 22.45C72.06 20.21 75.46 18.86 79.17 18.86C87.42 18.86 94.14 25.57 94.14 33.83L94.14 38.05C94.92 39.01 95.36 40.21 95.36 41.46C95.36 43.03 94.68 44.52 93.49 45.54C92.66 46.25 91.66 46.68 90.58 46.82C90.13 49.67 88.61 52.18 86.45 53.91L86.45 56.76L100.28 62.12C100.29 62.12 100.3 62.12 100.31 62.13C100.58 62.24 106.77 64.86 106.77 72.08L106.77 78.86C106.77 79.72 106.07 80.42 105.2 80.42C104.34 80.42 103.64 79.72 103.64 78.86L103.64 72.08C103.64 67.08 99.45 65.16 99.13 65.02L91.01 61.88L87.45 69C87.13 69.64 86.55 70.11 85.86 70.29C85.15 70.46 84.42 70.31 83.84 69.91L83.68 69.79L83.03 70.76L86.53 91.4C86.53 91.41 86.53 91.43 86.53 91.45C86.64 92.17 86.41 92.92 85.93 93.45L82.82 96.87L94.3 96.87L94.3 74.02C94.3 73.16 95 72.46 95.87 72.46C96.73 72.46 97.43 73.16 97.43 74.02L97.43 96.87L103.37 96.87C103.52 96.87 103.64 96.75 103.64 96.61L103.64 86.16C103.64 85.29 104.34 84.59 105.2 84.59C106.07 84.59 106.77 85.29 106.77 86.16ZM15.79 39.42C14.95 39.78 14.28 40.54 14.28 41.46C14.28 42.41 14.87 43.26 15.79 43.59L15.79 39.42ZM85.39 59.7C82.33 63.48 83.02 62.62 81.55 64.44C81.6 64.47 85.01 66.9 85.01 66.9L88.08 60.74L85.39 59.7ZM83.33 57.28L83.33 55.7C82.08 56.17 80.69 56.43 79.31 56.43C79.31 56.43 79.31 56.43 79.31 56.43C77.97 56.43 76.56 56.22 75.24 55.77L75.24 57.27L79.29 62.26L83.33 57.28ZM79.29 66.67L77.45 67.98L78.03 68.84L80.55 68.84L81.12 67.98L79.29 66.67ZM57.42 38.42L57.42 36.85C56.17 37.32 54.78 37.58 53.4 37.58C53.4 37.58 53.4 37.58 53.4 37.58C52.06 37.58 50.64 37.37 49.33 36.91L49.33 38.41L53.38 43.41L57.42 38.42ZM53.38 47.82L51.54 49.12L52.12 49.99L54.64 49.99L55.22 49.12L53.38 47.82ZM42.32 33.83L42.32 38.05C42.6 38.39 42.83 38.75 43.02 39.14L46.21 37.91L46.21 35.24C43.82 33.42 42.31 30.75 41.85 27.97C41.58 27.93 41.32 27.88 41.06 27.82C41.88 29.67 42.32 31.71 42.32 33.83ZM61.69 17.75C61.34 17.35 60.5 16.47 59.09 14.96C54.89 17.57 49.76 19.03 44.82 18.83L44.82 26.16C44.82 30.47 48.26 34.45 53.4 34.45C57.96 34.45 61.69 30.74 61.69 26.16C61.69 23.15 61.69 21.65 61.69 17.75ZM60.54 35.06L60.54 37.91L63.57 39.08C63.74 38.76 63.95 38.45 64.19 38.16L64.19 33.83C64.19 31.69 64.64 29.66 65.45 27.81C65.2 27.88 64.94 27.93 64.67 27.96C64.22 30.82 62.7 33.32 60.54 35.06ZM44.59 41.89L47.66 48.04L48.49 47.45C48.49 47.45 48.49 47.45 48.5 47.45L51.11 45.59L47.27 40.85L44.59 41.89ZM55.64 45.58L58.26 47.45C58.26 47.45 58.26 47.45 58.27 47.45L59.1 48.04L62.17 41.89L59.48 40.85L56.98 43.93L55.64 45.58ZM57.12 51.9L58.82 61.92L72.12 56.76L72.12 54.1C69.84 52.37 68.23 49.82 67.75 46.83C66.4 46.66 65.09 45.98 64.18 44.86L61.54 50.15L61.54 50.15C61.22 50.79 60.64 51.26 59.95 51.43C59.25 51.6 58.52 51.47 57.93 51.05L57.77 50.93L57.12 51.9ZM70.5 60.74L73.57 66.9C73.66 66.84 75.34 65.64 77.02 64.44L73.18 59.7L70.5 60.74ZM87.6 36.61C87.25 36.2 86.41 35.32 85 33.81C80.77 36.44 75.64 37.88 70.73 37.69L70.73 45.01C70.73 49.14 73.99 53.3 79.31 53.3C83.97 53.3 87.6 49.48 87.6 45.01C87.6 42.01 87.6 40.5 87.6 36.61ZM90.73 39.33L90.73 43.59C91.64 43.26 92.23 42.41 92.23 41.46C92.23 40.54 91.67 39.68 90.73 39.33ZM67.32 33.83L67.32 36.23C67.34 36.23 67.72 36.15 67.76 36.14C68.15 35.09 69.09 34.45 70.39 34.54C75.03 34.84 79.89 33.42 83.75 30.9C84.78 30.22 86.11 30.42 86.92 31.28C89.23 33.77 89.94 34.47 90.35 35.06C90.59 35.41 90.7 35.68 90.72 36.12C90.75 36.12 90.94 36.16 91.02 36.17L91.02 33.83C91.02 27.3 85.7 21.98 79.17 21.98C72.63 21.98 67.32 27.3 67.32 33.83ZM66.1 41.46C66.1 42.41 66.69 43.26 67.6 43.59L67.6 39.42C66.77 39.78 66.1 40.54 66.1 41.46ZM64.82 20.48L64.82 24.73C65.08 24.64 65.33 24.5 65.54 24.31C66.04 23.89 66.32 23.26 66.32 22.6C66.32 21.68 65.75 20.82 64.82 20.48ZM41.41 14.98L41.41 14.98L41.41 17.38C41.43 17.37 41.81 17.29 41.85 17.29C42.23 16.25 43.26 15.59 44.36 15.67C48.83 16 53.77 14.7 57.84 12.04C58.86 11.38 60.19 11.55 61.01 12.43C63.18 14.76 63.95 15.54 64.37 16.11C64.65 16.49 64.79 16.79 64.81 17.26C64.84 17.27 65.04 17.3 65.11 17.32L65.11 14.98C65.11 8.44 59.79 3.13 53.26 3.13C46.72 3.13 41.41 8.44 41.41 14.98ZM40.19 22.6C40.19 23.55 40.78 24.4 41.7 24.73L41.7 20.57C40.85 20.93 40.19 21.69 40.19 22.6ZM38.91 43.59C39.85 43.24 40.47 42.33 40.4 41.32C40.35 40.42 39.78 39.65 38.91 39.33L38.91 43.59ZM34.63 53.91L34.63 56.76L47.94 61.91L49.63 51.9L48.99 50.93L48.82 51.05C48.23 51.47 47.5 51.6 46.81 51.43C46.12 51.26 45.54 50.79 45.22 50.15C45.22 50.15 45.22 50.15 45.22 50.15L42.48 44.67C41.59 45.86 40.24 46.64 38.76 46.82C38.32 49.6 36.85 52.13 34.63 53.91ZM31.51 57.28L31.51 55.7C30.28 56.16 28.89 56.43 27.49 56.43L27.49 56.43C26.15 56.43 24.73 56.22 23.42 55.77L23.42 57.27L27.47 62.26L31.51 57.28ZM27.47 66.67L25.63 67.98L26.21 68.84L28.73 68.84L29.31 67.98L27.47 66.67ZM29.73 64.44L32.35 66.3C32.35 66.3 32.35 66.3 32.36 66.31L33.19 66.9L36.26 60.74L33.57 59.7L29.73 64.44ZM27.49 53.3C32.07 53.3 35.78 49.56 35.78 45.01C35.78 42.01 35.78 40.5 35.78 36.61C35.43 36.2 34.57 35.31 33.18 33.81C29.01 36.4 23.88 37.89 18.91 37.69L18.91 45.01C18.91 49.37 22.39 53.3 27.49 53.3ZM18.68 60.74L21.75 66.9L22.58 66.31C22.58 66.31 22.58 66.3 22.59 66.3L25.2 64.44L21.36 59.7L18.68 60.74ZM12.46 96.87L23.94 96.87L20.83 93.45C20.35 92.92 20.12 92.17 20.22 91.45C20.23 91.43 20.23 91.41 20.23 91.4L23.72 70.76L23.08 69.79L22.91 69.91C22.32 70.33 21.59 70.46 20.9 70.29C20.21 70.11 19.63 69.65 19.31 69L15.75 61.88L7.63 65.03C7.36 65.14 3.13 67.06 3.13 72.08L3.13 96.61C3.13 96.75 3.25 96.87 3.39 96.87L9.33 96.87L9.33 74.02C9.33 73.16 10.03 72.46 10.9 72.46C11.76 72.46 12.46 73.16 12.46 74.02L12.46 96.87ZM27.47 96.11L31.57 91.6L28.25 71.97L26.69 71.97L23.37 91.6L27.47 96.11ZM51.82 96.61L51.82 72.08C51.82 68.71 49.68 66.05 47.31 65.02L39.19 61.88L35.63 69C35.21 69.85 34.36 70.36 33.44 70.36C32.94 70.36 32.44 70.2 32.02 69.91L31.86 69.79L31.21 70.76L34.71 91.4C34.71 91.41 34.71 91.43 34.72 91.45C34.82 92.17 34.59 92.92 34.11 93.45L31 96.87L42.49 96.87L42.49 74.02C42.49 73.16 43.19 72.46 44.05 72.46C44.91 72.46 45.61 73.16 45.61 74.02L45.61 96.87L51.56 96.87C51.7 96.87 51.82 96.75 51.82 96.61ZM55.93 63.57L54.16 53.11L52.6 53.11L50.83 63.56C51.87 64.39 52.74 65.35 53.38 66.4C54.01 65.39 54.86 64.42 55.93 63.57ZM64.28 96.87L75.76 96.87L72.65 93.45C72.17 92.92 71.94 92.17 72.04 91.45C72.04 91.43 72.05 91.41 72.05 91.4L75.54 70.76L74.9 69.79L74.73 69.91C74.14 70.33 73.41 70.46 72.72 70.29C72.03 70.11 71.45 69.65 71.13 69L67.57 61.88L59.45 65.02C58.7 65.35 57.6 66.12 56.77 67.07C55.53 68.51 54.95 70.22 54.95 72.08L54.95 96.61C54.95 96.75 55.07 96.87 55.21 96.87L61.15 96.87L61.15 74.02C61.15 73.16 61.85 72.46 62.72 72.46C63.58 72.46 64.28 73.16 64.28 74.02L64.28 96.87ZM79.29 96.11L83.39 91.6L80.07 71.97L78.51 71.97L75.19 91.6L79.29 96.11Z" />
			</g>
		</g>
	</g>
</svg>